<mxfile host="app.diagrams.net" modified="2024-02-28T08:54:40.319Z" agent="Mozilla/5.0 (Windows NT 10.0; Win64; x64) AppleWebKit/537.36 (KHTML, like Gecko) Chrome/121.0.0.0 Safari/537.36" etag="kwwAuCVxgFpBKnoL3R8d" version="23.1.6" type="github">
  <diagram name="第 1 页" id="2AvsECfpP-dpQy5CQ5yH">
    <mxGraphModel dx="1376" dy="728" grid="1" gridSize="10" guides="1" tooltips="1" connect="1" arrows="1" fold="1" page="1" pageScale="1" pageWidth="827" pageHeight="1169" math="0" shadow="0">
      <root>
        <mxCell id="0" />
        <mxCell id="1" parent="0" />
        <mxCell id="D45DuEwmozY9MAPHDRq8-4" value="AWS Cloud" style="points=[[0,0],[0.25,0],[0.5,0],[0.75,0],[1,0],[1,0.25],[1,0.5],[1,0.75],[1,1],[0.75,1],[0.5,1],[0.25,1],[0,1],[0,0.75],[0,0.5],[0,0.25]];outlineConnect=0;html=1;whiteSpace=wrap;fontSize=12;fontStyle=0;container=1;pointerEvents=0;collapsible=0;recursiveResize=0;shape=mxgraph.aws4.group;grIcon=mxgraph.aws4.group_aws_cloud;verticalAlign=top;align=left;spacingLeft=30;dashed=0;" vertex="1" parent="1">
          <mxGeometry x="50" y="170" width="750" height="640" as="geometry" />
        </mxCell>
        <mxCell id="D45DuEwmozY9MAPHDRq8-5" value="Region" style="points=[[0,0],[0.25,0],[0.5,0],[0.75,0],[1,0],[1,0.25],[1,0.5],[1,0.75],[1,1],[0.75,1],[0.5,1],[0.25,1],[0,1],[0,0.75],[0,0.5],[0,0.25]];outlineConnect=0;gradientColor=none;html=1;whiteSpace=wrap;fontSize=12;fontStyle=0;container=1;pointerEvents=0;collapsible=0;recursiveResize=0;shape=mxgraph.aws4.group;grIcon=mxgraph.aws4.group_region;strokeColor=#00A4A6;fillColor=none;verticalAlign=top;align=left;spacingLeft=30;fontColor=#147EBA;dashed=1;" vertex="1" parent="D45DuEwmozY9MAPHDRq8-4">
          <mxGeometry x="40" y="70" width="614" height="480" as="geometry" />
        </mxCell>
        <mxCell id="D45DuEwmozY9MAPHDRq8-1" value="VPC" style="sketch=0;outlineConnect=0;html=1;whiteSpace=wrap;fontSize=12;fontStyle=0;shape=mxgraph.aws4.group;grIcon=mxgraph.aws4.group_vpc;strokeColor=#82b366;fillColor=none;verticalAlign=top;align=left;spacingLeft=30;dashed=0;" vertex="1" parent="D45DuEwmozY9MAPHDRq8-5">
          <mxGeometry x="20" y="60" width="560" height="380" as="geometry" />
        </mxCell>
        <mxCell id="D45DuEwmozY9MAPHDRq8-6" value="" style="sketch=0;outlineConnect=0;fontColor=#232F3E;gradientColor=none;fillColor=#232F3D;strokeColor=none;dashed=0;verticalLabelPosition=bottom;verticalAlign=top;align=center;html=1;fontSize=12;fontStyle=0;aspect=fixed;pointerEvents=1;shape=mxgraph.aws4.internet;" vertex="1" parent="1">
          <mxGeometry x="330" y="90" width="78" height="48" as="geometry" />
        </mxCell>
        <mxCell id="D45DuEwmozY9MAPHDRq8-7" value="web doamin:&lt;br&gt;backend Ingress" style="text;html=1;align=left;verticalAlign=middle;whiteSpace=wrap;rounded=0;" vertex="1" parent="1">
          <mxGeometry x="460" y="100" width="190" height="42" as="geometry" />
        </mxCell>
      </root>
    </mxGraphModel>
  </diagram>
</mxfile>
